<?xml version="1.0" encoding="utf-8"?>
<!-- Generator: Adobe Illustrator 18.0.0, SVG Export Plug-In . SVG Version: 6.00 Build 0)  -->
<!DOCTYPE svg PUBLIC "-//W3C//DTD SVG 1.1//EN" "http://www.w3.org/Graphics/SVG/1.1/DTD/svg11.dtd">
<svg version="1.1" id="Capa_1" xmlns="http://www.w3.org/2000/svg" xmlns:xlink="http://www.w3.org/1999/xlink" x="0px" y="0px"
	 viewBox="0 0 500 500" enable-background="new 0 0 500 500" xml:space="preserve">
<g>
	<path fill="#E6E7E9" d="M477.6,250.7c0,125.4-101.6,227.1-227.1,227.1c-125.4,0-227.1-101.7-227.1-227.1
		c0-125.4,101.7-227.1,227.1-227.1C375.9,23.6,477.6,125.3,477.6,250.7z"/>
	<rect x="90.4" y="176" fill="#414142" width="320.3" height="74.7"/>
	<g>
		<rect x="90.4" y="176" fill="#595A5C" width="62.8" height="74.8"/>
		<rect x="154.7" y="176" fill="#595A5C" width="62.8" height="74.8"/>
		<rect x="219.1" y="176" fill="#595A5C" width="62.8" height="74.8"/>
		<rect x="283.4" y="176" fill="#595A5C" width="62.8" height="74.7"/>
		<rect x="347.8" y="176" fill="#595A5C" width="62.8" height="74.7"/>
	</g>
	<rect x="140.9" y="123.2" fill="#FFFFFF" width="221.9" height="32.1"/>
	<g>
		<rect x="82.2" y="273.3" fill="#414142" width="318.9" height="6.5"/>
		<g>
			<rect x="80.2" y="263.9" fill="#414142" width="3.9" height="25.5"/>
		</g>
		<g>
			<path fill="#414142" d="M420.7,276.6c-9.3,3.4-20.8,9.3-27.9,15.5l5.6-15.5l-5.6-15.5C400,267.3,411.5,273.2,420.7,276.6z"/>
		</g>
	</g>
	<rect x="138.2" y="265.2" fill="#595A5C" width="224.6" height="22.9"/>
	<rect x="104.1" y="322.3" fill="#808386" width="293.7" height="20.1"/>
	<path fill="#595A5C" d="M158.4,378.3c0,8.1-6.6,14.7-14.7,14.7c-8.1,0-14.7-6.6-14.7-14.7c0-8.1,6.6-14.7,14.7-14.7
		C151.8,363.6,158.4,370.2,158.4,378.3z"/>
	<path fill="#595A5C" d="M230.5,378.3c0,8.1-6.6,14.7-14.7,14.7c-8.1,0-14.7-6.6-14.7-14.7c0-8.1,6.6-14.7,14.7-14.7
		C223.9,363.6,230.5,370.2,230.5,378.3z"/>
	<path fill="#595A5C" d="M302.6,378.3c0,8.1-6.6,14.7-14.7,14.7c-8.1,0-14.7-6.6-14.7-14.7c0-8.1,6.6-14.7,14.7-14.7
		C296,363.6,302.6,370.2,302.6,378.3z"/>
	<path fill="#595A5C" d="M374.6,378.3c0,8.1-6.6,14.7-14.7,14.7c-8.1,0-14.7-6.6-14.7-14.7c0-8.1,6.6-14.7,14.7-14.7
		C368.1,363.6,374.6,370.2,374.6,378.3z"/>
	<path fill="#595A5C" d="M274.4,80.2c0,13.2-10.7,23.9-23.9,23.9c-13.2,0-23.9-10.7-23.9-23.9c0-13.2,10.7-23.9,23.9-23.9
		C263.7,56.3,274.4,67,274.4,80.2z"/>
	<path fill="#D1D3D4" d="M250.5,472.9c-122.5,0-222.2-99.7-222.2-222.2c0-122.5,99.7-222.2,222.2-222.2
		c122.5,0,222.2,99.7,222.2,222.2C472.7,373.2,373,472.9,250.5,472.9z M250.5,35.1c-118.9,0-215.6,96.7-215.6,215.7
		c0,118.9,96.7,215.6,215.6,215.6s215.6-96.7,215.6-215.6C466.1,131.8,369.4,35.1,250.5,35.1z"/>
	<path fill="#BCBEC0" d="M250.5,23.6c125.4,0,227.1,101.7,227.1,227.1c0,125.4-101.6,227.1-227.1,227.1
		c-125.4,0-227.1-101.7-227.1-227.1C23.4,125.3,125.1,23.6,250.5,23.6L250.5,23.6z M250.5,10.6c-132.4,0-240.1,107.7-240.1,240.1
		c0,132.4,107.7,240.1,240.1,240.1c132.4,0,240.1-107.7,240.1-240.1C490.6,118.3,382.9,10.6,250.5,10.6L250.5,10.6z"/>
	<path fill="#6E6F72" d="M266.3,80.2c0,8.7-7.1,15.8-15.8,15.8c-8.7,0-15.8-7.1-15.8-15.8c0-8.7,7.1-15.8,15.8-15.8
		C259.2,64.4,266.3,71.5,266.3,80.2z"/>
	<g>
		<path fill="#FFFFFF" d="M120.4,194.7h-0.1l-7.6,4.1l-1.1-4.5l9.5-5.1h5v43.6h-5.7V194.7z"/>
	</g>
	<g>
		<path fill="#FFFFFF" d="M200.9,210.6c0,14.8-5.5,23-15.2,23c-8.5,0-14.3-8-14.4-22.4c0-14.6,6.3-22.7,15.2-22.7
			C195.7,188.5,200.9,196.7,200.9,210.6z M177.2,211.2c0,11.3,3.5,17.8,8.9,17.8c6,0,8.9-7,8.9-18.2c0-10.7-2.8-17.8-8.9-17.8
			C181,193.1,177.2,199.4,177.2,211.2z"/>
	</g>
	<g>
		<path fill="#FFFFFF" d="M255.3,232.9V221H235v-3.9l19.5-27.9h6.4v27.1h6.1v4.6h-6.1v11.9H255.3z M255.3,216.3v-14.6
			c0-2.3,0.1-4.6,0.2-6.8h-0.2c-1.3,2.6-2.4,4.4-3.6,6.4L241,216.2v0.1H255.3z"/>
	</g>
	<g>
		<path fill="#FFFFFF" d="M327.5,194.2h-16.6l-1.7,11.2c1-0.1,1.9-0.3,3.6-0.3c3.4,0,6.7,0.7,9.4,2.3c3.4,1.9,6.2,5.7,6.2,11.2
			c0,8.5-6.8,14.9-16.2,14.9c-4.8,0-8.8-1.3-10.9-2.7l1.5-4.5c1.8,1.1,5.4,2.4,9.3,2.4c5.6,0,10.3-3.6,10.3-9.5
			c-0.1-5.6-3.8-9.7-12.6-9.7c-2.5,0-4.4,0.3-6,0.5l2.8-20.9h20.9V194.2z"/>
	</g>
	<g>
		<path fill="#FFFFFF" d="M366.4,226.1c1.7,1.1,5.6,2.8,9.7,2.8c7.6,0,9.9-4.8,9.9-8.5c-0.1-6.1-5.6-8.7-11.3-8.7h-3.3v-4.4h3.3
			c4.3,0,9.7-2.2,9.7-7.4c0-3.5-2.2-6.6-7.7-6.6c-3.5,0-6.8,1.5-8.7,2.9l-1.5-4.3c2.3-1.7,6.7-3.4,11.4-3.4
			c8.6,0,12.5,5.1,12.5,10.4c0,4.5-2.7,8.3-8.1,10.3v0.1c5.4,1.1,9.7,5.1,9.7,11.2c0,7-5.4,13.1-15.9,13.1c-4.9,0-9.2-1.5-11.3-3
			L366.4,226.1z"/>
	</g>
	<g>
		<path fill="#010202" d="M213.9,332.1c0,4.6-1.7,7.1-4.7,7.1c-2.6,0-4.4-2.5-4.4-6.9c0-4.5,1.9-7,4.7-7
			C212.3,325.4,213.9,327.9,213.9,332.1z M206.6,332.3c0,3.5,1.1,5.5,2.7,5.5c1.9,0,2.7-2.2,2.7-5.6c0-3.3-0.8-5.5-2.7-5.5
			C207.8,326.8,206.6,328.7,206.6,332.3z"/>
		<path fill="#010202" d="M224.5,332.1c0,4.6-1.7,7.1-4.7,7.1c-2.6,0-4.4-2.5-4.4-6.9c0-4.5,1.9-7,4.7-7
			C222.9,325.4,224.5,327.9,224.5,332.1z M217.2,332.3c0,3.5,1.1,5.5,2.7,5.5c1.9,0,2.7-2.2,2.7-5.6c0-3.3-0.8-5.5-2.7-5.5
			C218.4,326.8,217.2,328.7,217.2,332.3z"/>
		<path fill="#010202" d="M234.2,327.1h-5.1l-0.5,3.4c0.3,0,0.6-0.1,1.1-0.1c1,0,2.1,0.2,2.9,0.7c1.1,0.6,1.9,1.8,1.9,3.4
			c0,2.6-2.1,4.6-5,4.6c-1.5,0-2.7-0.4-3.3-0.8l0.5-1.4c0.6,0.3,1.7,0.7,2.9,0.7c1.7,0,3.2-1.1,3.2-2.9c0-1.7-1.2-3-3.9-3
			c-0.8,0-1.4,0.1-1.9,0.1l0.9-6.4h6.4V327.1z"/>
		<path fill="#010202" d="M247.1,338.5c-0.7,0.3-2,0.7-3.7,0.7c-3.9,0-6.9-2.5-6.9-7c0-4.4,3-7.3,7.3-7.3c1.7,0,2.8,0.4,3.3,0.6
			l-0.4,1.5c-0.7-0.3-1.7-0.6-2.8-0.6c-3.3,0-5.4,2.1-5.4,5.7c0,3.4,2,5.6,5.3,5.6c1.1,0,2.2-0.2,2.9-0.6L247.1,338.5z"/>
		<path fill="#010202" d="M252.7,327.3L252.7,327.3l-2.4,1.3l-0.4-1.4l2.9-1.6h1.5V339h-1.8V327.3z"/>
		<path fill="#010202" d="M268.3,332.1c0,4.6-1.7,7.1-4.7,7.1c-2.6,0-4.4-2.5-4.4-6.9c0-4.5,1.9-7,4.7-7
			C266.7,325.4,268.3,327.9,268.3,332.1z M261,332.3c0,3.5,1.1,5.5,2.7,5.5c1.9,0,2.7-2.2,2.7-5.6c0-3.3-0.8-5.5-2.7-5.5
			C262.1,326.8,261,328.7,261,332.3z"/>
		<path fill="#010202" d="M270.4,336.9c0.5,0.3,1.7,0.8,3,0.8c2.3,0,3.1-1.5,3-2.6c0-1.9-1.7-2.7-3.5-2.7h-1v-1.4h1
			c1.3,0,3-0.7,3-2.3c0-1.1-0.7-2-2.4-2c-1.1,0-2.1,0.5-2.7,0.9l-0.5-1.3c0.7-0.5,2.1-1,3.5-1c2.6,0,3.8,1.6,3.8,3.2
			c0,1.4-0.8,2.6-2.5,3.2v0c1.7,0.3,3,1.6,3,3.4c0,2.1-1.7,4-4.9,4c-1.5,0-2.8-0.5-3.5-0.9L270.4,336.9z"/>
		<path fill="#010202" d="M286.2,339v-3.7h-6.2v-1.2l6-8.6h2v8.3h1.9v1.4h-1.9v3.7H286.2z M286.2,333.9v-4.5c0-0.7,0-1.4,0.1-2.1
			h-0.1c-0.4,0.8-0.7,1.4-1.1,2l-3.3,4.6v0H286.2z"/>
		<path fill="#010202" d="M291,335.6c0-1.7,1-2.9,2.7-3.6l0-0.1c-1.5-0.7-2.1-1.9-2.1-3c0-2.1,1.8-3.6,4.1-3.6
			c2.6,0,3.9,1.6,3.9,3.3c0,1.1-0.6,2.4-2.2,3.1v0.1c1.7,0.7,2.7,1.8,2.7,3.5c0,2.3-2,3.9-4.6,3.9C292.7,339.2,291,337.6,291,335.6z
			 M298.2,335.5c0-1.6-1.1-2.4-3-2.9c-1.6,0.5-2.4,1.5-2.4,2.8c-0.1,1.4,1,2.6,2.7,2.6C297.1,337.9,298.2,336.9,298.2,335.5z
			 M293.2,328.8c0,1.3,1,2.1,2.6,2.5c1.2-0.4,2-1.2,2-2.4c0-1.1-0.6-2.2-2.3-2.2C294,326.7,293.2,327.6,293.2,328.8z"/>
	</g>
</g>
</svg>
