<?xml version="1.0" encoding="utf-8"?>
<!-- Generator: Adobe Illustrator 19.0.0, SVG Export Plug-In . SVG Version: 6.00 Build 0)  -->
<svg version="1.1" id="Capa_1" xmlns="http://www.w3.org/2000/svg" xmlns:xlink="http://www.w3.org/1999/xlink" x="0px" y="0px"
	 viewBox="-764 406.3 70 80" style="enable-background:new -764 406.3 70 80;" xml:space="preserve">
<style type="text/css">
	.st0{fill:#E6E7E9;}
	.st1{fill:#D1D3D4;}
	.st2{fill:#BCBEC0;}
	.st3{fill:#2B2C2C;}
	.st4{fill:#808080;}
</style>
<g>
	<circle class="st0" cx="-728.8" cy="451.2" r="32.7"/>
	<path class="st1" d="M-728.8,481.5c-16.7,0-30.3-13.6-30.3-30.3c0-16.7,13.6-30.3,30.3-30.3s30.3,13.6,30.3,30.3
		C-698.6,467.9-712.1,481.5-728.8,481.5z M-728.8,421.8c-16.3,0-29.4,13.2-29.4,29.4c0,16.2,13.2,29.4,29.4,29.4
		s29.4-13.2,29.4-29.4C-699.4,435-712.6,421.8-728.8,421.8z"/>
	<path class="st2" d="M-728.8,420.2c17.1,0,31,13.9,31,31c0,17.1-13.9,31-31,31c-17.1,0-31-13.9-31-31
		C-759.8,434.1-745.9,420.2-728.8,420.2L-728.8,420.2z M-728.8,418.5c-18.1,0-32.8,14.7-32.8,32.7c0,18.1,14.7,32.7,32.7,32.7
		c18.1,0,32.7-14.7,32.7-32.7C-696.1,433.2-710.8,418.5-728.8,418.5L-728.8,418.5z"/>
	<g>
		<path class="st3" d="M-730.8,426.1c0-1.3,0.2-2.7,2.2-2.7s2.2,1.4,2.2,2.7v2.7c0,1.3-0.2,2.7-2.2,2.7s-2.2-1.4-2.2-2.7V426.1z
			 M-729.4,429c0,1,0.1,1.4,0.7,1.4c0.6,0,0.7-0.4,0.7-1.4v-3.1c0-1-0.1-1.4-0.7-1.4c-0.6,0-0.7,0.4-0.7,1.4V429z"/>
	</g>
	<g>
		<path class="st3" d="M-717.7,430.1c-0.4,0-0.6-0.1-0.6-0.5c0-0.3,0.1-0.4,0.5-0.5c0.8-0.1,1.2-0.4,1.5-0.9s0.3-0.6,0.7-0.6
			c0.2,0,0.5,0.2,0.5,0.6v6.8c0,0.5-0.3,0.8-0.7,0.8c-0.4,0-0.7-0.3-0.7-0.8v-4.9H-717.7z"/>
	</g>
	<g>
		<path class="st3" d="M-709.3,446.1c-0.4,0-0.6-0.2-0.6-0.6c0-0.6,0.3-1.7,1.5-2.9l0.5-0.5c0.8-0.8,1-1.2,1-1.8c0-0.6-0.2-1-0.7-1
			c-0.6,0-0.7,0.4-0.8,1.1c0,0.4-0.3,0.6-0.7,0.6c-0.5,0-0.7-0.4-0.7-0.8c0-1.2,0.8-2,2.1-2c1.5,0,2.3,0.7,2.3,2.1
			c0,0.7-0.3,1.5-1,2.1l-0.9,0.9c-0.6,0.6-0.9,1-1,1.5h2.2c0.5,0,0.8,0.1,0.8,0.6s-0.3,0.6-0.8,0.6h-3.2V446.1z"/>
	</g>
	<g>
		<path class="st3" d="M-709.3,459.6c0.4,0,0.7,0.3,0.7,0.8c0,0.6,0.3,1,0.8,1c0.6,0,0.8-0.6,0.8-1.4c0-1.1-0.3-1.3-0.9-1.4
			c-0.6-0.1-0.7-0.2-0.7-0.5c0-0.3,0.1-0.4,0.7-0.5c0.6-0.1,0.8-0.4,0.8-1.2c0-0.5-0.2-0.9-0.7-0.9c-0.4,0-0.6,0.2-0.7,0.7
			s-0.3,0.7-0.7,0.7c-0.4,0-0.6-0.3-0.6-0.7c0-1,0.6-1.8,2-1.8c1.6,0,2.2,0.9,2.2,2c0,0.8-0.3,1.4-0.9,1.6c0.8,0.3,1.1,0.9,1.1,2
			c0,1.5-0.7,2.4-2.3,2.4c-1.9,0-2.2-1.4-2.2-2C-710,460-709.7,459.6-709.3,459.6z"/>
	</g>
	<g>
		<path class="st3" d="M-716.2,472.6h-1.8c-0.5,0-0.8-0.2-0.8-0.6c0-0.2,0.1-0.5,0.2-0.8l2.1-4.5c0.2-0.5,0.4-0.5,0.9-0.5
			s0.7,0.3,0.7,0.7v4.5h0.3c0.3,0,0.6,0.1,0.6,0.6c0,0.4-0.3,0.6-0.6,0.6h-0.3v0.9c0,0.5-0.3,0.8-0.7,0.8c-0.4,0-0.7-0.3-0.7-0.8
			L-716.2,472.6L-716.2,472.6z M-716.2,468.2L-716.2,468.2l-1.5,3.2h1.5V468.2z"/>
	</g>
	<g>
		<path class="st3" d="M-729.5,475c0.3-0.3,0.6-0.4,1.2-0.4c1.1,0,1.9,0.6,1.9,2.6c0,1.6-0.4,2.9-2.3,2.9c-1.9,0-2.2-1.4-2.2-1.9
			c0-0.4,0.2-0.9,0.7-0.9s0.7,0.3,0.7,0.7c0,0.6,0.2,1,0.7,1c0.6,0,0.8-0.6,0.8-1.6c0-1.3-0.2-1.8-0.9-1.8c-0.7,0-0.5,0.8-1.3,0.8
			c-0.4,0-0.6-0.3-0.6-0.6c0-0.1,0-0.2,0-0.4l0.1-2.7c0-0.3,0.1-0.5,0.5-0.5h2.7c0.5,0,0.8,0.1,0.8,0.6s-0.3,0.6-0.8,0.6h-2V475z"/>
	</g>
	<g>
		<path class="st3" d="M-743.9,469.8c0-2.2,0.4-3.6,2.3-3.6c1.3,0,1.9,0.6,1.9,1.3c0,0.4-0.3,0.6-0.6,0.6s-0.4-0.1-0.6-0.5
			c-0.2-0.4-0.3-0.4-0.6-0.4c-0.6,0-0.8,0.6-0.8,1.6v0.5c0.3-0.3,0.7-0.4,1.2-0.4c1.4,0,1.9,1.1,1.9,2.5c0,1.6-0.4,2.9-2.2,2.9
			c-2.1,0-2.3-1.5-2.3-3.6v-0.9H-743.9z M-741.7,473.2c0.6,0,0.8-0.6,0.8-1.7c0-1-0.1-1.6-0.8-1.6c-0.6,0-0.8,0.6-0.8,1.6
			C-742.5,472.6-742.3,473.2-741.7,473.2z"/>
	</g>
	<g>
		<path class="st3" d="M-739.4,432.2c0,2.2-0.4,3.6-2.3,3.6c-1.3,0-1.9-0.6-1.9-1.3c0-0.4,0.3-0.6,0.6-0.6s0.4,0.1,0.6,0.5
			c0.2,0.4,0.3,0.4,0.6,0.4c0.6,0,0.8-0.6,0.8-1.6v-0.5c-0.3,0.3-0.7,0.4-1.2,0.4c-1.4,0-1.9-1.1-1.9-2.5c0-1.6,0.4-2.9,2.2-2.9
			c2.1,0,2.3,1.5,2.3,3.6v0.9H-739.4z M-741.7,432.1c0.6,0,0.8-0.6,0.8-1.6c0-1.1-0.1-1.7-0.8-1.7c-0.6,0-0.8,0.6-0.8,1.7
			C-742.5,431.5-742.3,432.1-741.7,432.1z"/>
	</g>
	<g>
		<path class="st3" d="M-752.3,441.9c-0.6-0.3-0.9-0.9-0.9-1.6c0-1.3,0.7-2.1,2.1-2.1c1.4,0,2.1,0.8,2.1,2.1c0,0.7-0.2,1.3-0.9,1.6
			c0.8,0.4,1,1.2,1,2c0,1.1-0.3,2.3-2.3,2.3c-1.9,0-2.3-1.2-2.3-2.3C-753.3,443.1-753.1,442.3-752.3,441.9z M-751.8,444.1
			c0,0.6,0.1,1.1,0.8,1.1c0.6,0,0.8-0.5,0.8-1.1v-0.6c0-0.5-0.1-1.1-0.8-1.1s-0.8,0.7-0.8,1.1V444.1z M-751,441.4
			c0.6,0,0.7-0.5,0.7-1s-0.1-1-0.7-1c-0.5,0-0.7,0.4-0.7,1C-751.7,440.8-751.6,441.4-751,441.4z"/>
	</g>
	<g>
		<path class="st3" d="M-752.6,454.3c-0.5,0-0.7-0.4-0.7-0.6c0-0.3,0.2-0.7,0.7-0.7h3.4c0.5,0,0.7,0.1,0.7,0.5c0,0.1,0,0.2-0.4,1
			c-0.7,1.4-1.5,3.8-1.6,5.6c0,0.5-0.3,0.8-0.8,0.8s-0.7-0.3-0.7-0.8c0-1,0.9-4,2-5.8H-752.6z"/>
	</g>
	<circle class="st3" cx="-729.1" cy="451.5" r="1.2"/>
	<path class="st3" d="M-719.5,465.9l-9.7-13.7c-0.2-0.3-0.1-0.7,0.2-0.9l0,0c0.3-0.2,0.7-0.1,0.9,0.2l9.7,13.7
		c0.2,0.3,0.1,0.7-0.2,0.9l0,0C-719,466.3-719.4,466.2-719.5,465.9z"/>
</g>
<path class="st4" d="M-697.5,423.3c0,0.4-5.2-13.5-28.7-13.7c-23.5-0.2-35.1,11.1-35.1,18.8l4.8,0c0-7.7,10.4-17.7,30.1-17.6
	c19.1,0.1,25.4,12.4,25.4,12.4l-2.6,0l5.4,5.6l3-5.5L-697.5,423.3z"/>
</svg>
